<svg width="438" height="150" viewBox="0 0 438 150" fill="none" xmlns="http://www.w3.org/2000/svg">
<path d="M93 59.0498L94.3728 59.4858L113.615 48.8385L96.4609 60.1489L98.9667 60.9447L114.414 49.1789L112.495 52.6392L114.174 51.912L113.35 54.9522L119.415 45.3736L107.942 44.7978L111.661 46.698L109.955 47.4348L112.751 47.5413L94.8964 53.0784L94.5941 54.0301L105.399 50.7977L95.1394 55.5801L102.367 53.2396L93.3281 58.0166L93 59.0498ZM102.77 41.8717L103.97 43.7627L113.568 44.2257L104.515 40.6348L102.77 41.8717L102.77 41.8717ZM113.577 56.1645L114.237 57.544L115.704 56.9947L117.177 50.4731L113.577 56.1646L113.577 56.1645Z" fill="url(#paint0_linear_568_164)"/>
<path d="M213 59.0498L214.373 59.4858L233.615 48.8385L216.461 60.1489L218.967 60.9447L234.414 49.1789L232.495 52.6392L234.174 51.912L233.35 54.9522L239.415 45.3736L227.942 44.7978L231.661 46.698L229.955 47.4348L232.751 47.5413L214.896 53.0784L214.594 54.0301L225.399 50.7977L215.139 55.5801L222.367 53.2396L213.328 58.0166L213 59.0498ZM222.77 41.8717L223.97 43.7627L233.568 44.2257L224.515 40.6348L222.77 41.8717L222.77 41.8717ZM233.577 56.1645L234.237 57.544L235.704 56.9947L237.177 50.4731L233.577 56.1646L233.577 56.1645Z" fill="url(#paint1_linear_568_164)"/>
<path d="M27.392 72.752C27.392 74.544 28.288 75.952 30.08 76.976C31.9573 78 34.8587 79.1093 38.784 80.304C43.4773 81.84 47.3173 83.3333 50.304 84.784C53.376 86.2347 56.0213 88.496 58.24 91.568C60.544 94.64 61.696 98.6507 61.696 103.6C61.696 119.472 51.3707 127.408 30.72 127.408C27.3067 127.408 23.1253 127.109 18.176 126.512C13.312 125.915 8.87467 125.147 4.864 124.208C5.03467 122.416 5.376 119.813 5.888 116.4C6.48533 112.901 7.04 110.299 7.552 108.592C10.5387 109.019 15.0187 109.531 20.992 110.128C27.0507 110.725 31.616 111.024 34.688 111.024C36.48 111.024 37.5467 110.896 37.888 110.64C38.4 110.299 38.784 109.744 39.04 108.976C39.3813 108.123 39.552 107.397 39.552 106.8C39.552 105.093 38.7413 103.813 37.12 102.96C35.4987 102.021 32.7253 100.912 28.8 99.632C24.1067 98.1813 20.224 96.688 17.152 95.152C14.08 93.616 11.392 91.2267 9.088 87.984C6.784 84.7413 5.632 80.4747 5.632 75.184C5.632 71.4293 6.48533 67.76 8.192 64.176C9.89867 60.5067 11.648 58.032 13.44 56.752C14.8053 55.8133 17.6213 54.9173 21.888 54.064C26.1547 53.2107 30.1653 52.784 33.92 52.784C43.4773 52.784 51.2853 53.68 57.344 55.472C57.2587 57.1787 56.96 59.5253 56.448 62.512C56.0213 65.4987 55.552 68.2293 55.04 70.704L52.096 70.576C41.0027 69.808 33.92 69.424 30.848 69.424C29.568 69.424 28.8427 69.4667 28.672 69.552C28.3307 69.7227 28.032 70.1067 27.776 70.704C27.52 71.3013 27.392 71.984 27.392 72.752ZM106.195 126L104.147 117.936C100.222 124.336 94.7603 127.536 87.763 127.536C82.0457 127.536 77.3523 125.957 73.683 122.8C70.099 119.557 68.307 115.035 68.307 109.232C68.307 105.648 69.331 102.533 71.379 99.888C73.5123 97.1573 76.4137 95.2373 80.083 94.128C84.8617 92.7627 92.243 91.9947 102.227 91.824C102.227 86.192 101.971 83.2053 101.459 82.864C101.032 82.5227 99.667 82.352 97.363 82.352C95.9123 82.352 93.907 82.4373 91.347 82.608C87.251 82.7787 81.7043 83.248 74.707 84.016C74.0243 79.408 73.5123 74.4587 73.171 69.168C77.6937 68.2293 82.4297 67.4613 87.379 66.864C92.3283 66.1813 96.7657 65.84 100.691 65.84C107.518 65.84 112.638 66.992 116.051 69.296C119.464 71.5147 121.683 74.4587 122.707 78.128C123.731 81.7973 124.2 86.448 124.115 92.08L123.987 110.896L124.371 126H106.195ZM95.187 113.2C97.4057 113.2 99.7523 112.773 102.227 111.92V102.448H101.203C94.8883 102.448 91.3897 102.789 90.707 103.472C90.2803 103.899 89.939 104.539 89.683 105.392C89.5123 106.245 89.427 107.056 89.427 107.824C89.427 109.872 89.8963 111.28 90.835 112.048C91.7737 112.816 93.2243 113.2 95.187 113.2ZM194.926 67.12L179.566 116.4C176.579 125.872 173.891 132.741 171.502 137.008C169.113 141.36 166.723 144.389 164.334 146.096C162.969 147.035 160.793 147.76 157.806 148.272C154.905 148.784 151.747 149.04 148.334 149.04C143.214 149.04 139.118 148.571 136.046 147.632C135.961 145.584 136.046 143.067 136.302 140.08C136.558 137.179 136.899 134.704 137.326 132.656C140.91 132.827 144.409 132.912 147.822 132.912C150.382 132.912 152.302 132.869 153.582 132.784C154.862 130.309 156.057 127.707 157.166 124.976L148.334 124.464L128.622 67.12H151.79L162.03 108.336L162.158 110.768H162.542L171.758 67.12H194.926ZM231.32 126L229.272 117.936C225.347 124.336 219.885 127.536 212.888 127.536C207.171 127.536 202.477 125.957 198.808 122.8C195.224 119.557 193.432 115.035 193.432 109.232C193.432 105.648 194.456 102.533 196.504 99.888C198.637 97.1573 201.539 95.2373 205.208 94.128C209.987 92.7627 217.368 91.9947 227.352 91.824C227.352 86.192 227.096 83.2053 226.584 82.864C226.157 82.5227 224.792 82.352 222.488 82.352C221.037 82.352 219.032 82.4373 216.472 82.608C212.376 82.7787 206.829 83.248 199.832 84.016C199.149 79.408 198.637 74.4587 198.296 69.168C202.819 68.2293 207.555 67.4613 212.504 66.864C217.453 66.1813 221.891 65.84 225.816 65.84C232.643 65.84 237.763 66.992 241.176 69.296C244.589 71.5147 246.808 74.4587 247.832 78.128C248.856 81.7973 249.325 86.448 249.24 92.08L249.112 110.896L249.496 126H231.32ZM220.312 113.2C222.531 113.2 224.877 112.773 227.352 111.92V102.448H226.328C220.013 102.448 216.515 102.789 215.832 103.472C215.405 103.899 215.064 104.539 214.808 105.392C214.637 106.245 214.552 107.056 214.552 107.824C214.552 109.872 215.021 111.28 215.96 112.048C216.899 112.816 218.349 113.2 220.312 113.2ZM321.715 126H297.907L285.747 102.064C284.552 99.5893 282.974 98.0107 281.011 97.328V126H259.123V49.2L281.011 48.304V91.952C283.059 91.0987 284.808 89.3493 286.259 86.704L297.139 67.12L321.075 66.992L308.659 86.96C306.696 90.1173 304.563 92.6347 302.259 94.512C304.222 96.6453 306.44 99.888 308.915 104.24L321.715 126ZM338.277 127.024C334.778 127.024 331.877 125.872 329.573 123.568C327.354 121.264 326.245 118.149 326.245 114.224C326.245 110.811 327.397 107.952 329.701 105.648C332.09 103.259 335.077 102.064 338.661 102.064C342.074 102.064 344.933 103.259 347.237 105.648C349.541 107.952 350.693 110.811 350.693 114.224C350.693 118.149 349.541 121.264 347.237 123.568C345.018 125.872 342.032 127.024 338.277 127.024ZM390.051 114.096C389.71 113.669 389.198 113.2 388.515 112.688C387.832 112.091 387.235 111.579 386.723 111.152L383.651 115.376L379.427 121.264C378.488 122.544 377.294 123.525 375.843 124.208C374.478 124.805 373.027 125.104 371.491 125.104C369.528 125.104 367.736 124.635 366.115 123.696C364.494 122.672 363.299 121.221 362.531 119.344C362.36 118.832 362.275 118.363 362.275 117.936C362.275 116.485 362.659 115.205 363.427 114.096C367.352 108.805 371.15 104.197 374.819 100.272C375.502 99.5893 376.184 98.9067 376.867 98.224C377.635 97.456 378.019 96.944 378.019 96.688C378.019 96.5173 377.678 96.0907 376.995 95.408C376.398 94.64 375.8 93.744 375.203 92.72C374.776 91.952 373.71 90.544 372.003 88.496L369.187 84.656C368.675 83.888 368.248 82.9067 367.907 81.712C367.566 80.5173 367.31 79.664 367.139 79.152C367.736 78.9813 368.632 78.64 369.827 78.128C372.302 77.0187 374.051 76.6347 375.075 76.976C377.464 77.9147 379.512 78.9387 381.219 80.048C383.011 81.072 384.206 82.3947 384.803 84.016C385.059 84.6987 385.358 85.5093 385.699 86.448C386.04 87.3013 386.339 87.8987 386.595 88.24C386.851 88.5813 387.107 88.752 387.363 88.752C387.704 88.752 388.259 88.368 389.027 87.6C389.88 86.832 390.904 85.808 392.099 84.528C393.038 83.5893 394.147 82.736 395.427 81.968C396.707 81.1147 397.987 80.3467 399.267 79.664C400.547 78.9813 401.784 78.64 402.979 78.64C404.344 78.64 405.624 79.024 406.819 79.792C408.014 80.56 409.251 81.6693 410.531 83.12C410.702 83.4613 410.787 83.8027 410.787 84.144C410.787 84.656 410.659 85.2107 410.403 85.808C410.232 86.4053 410.019 86.8747 409.763 87.216C407.63 89.6907 404.942 92.2507 401.699 94.896C401.358 95.152 400.974 95.4507 400.547 95.792C400.206 96.1333 399.822 96.4747 399.395 96.816C398.115 97.84 397.091 98.736 396.323 99.504C395.555 100.187 395.171 100.784 395.171 101.296C395.171 101.893 395.811 102.96 397.091 104.496L400.163 108.592C402.467 112.261 404.046 115.205 404.899 117.424C405.155 118.021 405.283 118.789 405.283 119.728C405.283 120.411 405.24 121.051 405.155 121.648C405.07 122.245 405.027 122.885 405.027 123.568C403.832 123.397 402.851 123.312 402.083 123.312C401.827 123.312 401.102 123.227 399.907 123.056C398.712 122.885 397.688 122.544 396.835 122.032C395.726 121.264 394.702 120.283 393.763 119.088C392.91 117.808 392.398 117.083 392.227 116.912L390.051 114.096Z" fill="url(#paint2_linear_568_164)"/>
<defs>
<linearGradient id="paint0_linear_568_164" x1="74.8627" y1="59.1605" x2="92.1258" y2="27.6682" gradientUnits="userSpaceOnUse">
<stop offset="0.262652" stop-color="#DB0260"/>
<stop offset="1" stop-color="#F9A6FF"/>
</linearGradient>
<linearGradient id="paint1_linear_568_164" x1="194.863" y1="59.1605" x2="212.126" y2="27.6682" gradientUnits="userSpaceOnUse">
<stop offset="0.262652" stop-color="#DB0260"/>
<stop offset="1" stop-color="#F9A6FF"/>
</linearGradient>
<linearGradient id="paint2_linear_568_164" x1="-116.5" y1="-114" x2="434.5" y2="227" gradientUnits="userSpaceOnUse">
<stop offset="0.262652" stop-color="#DB0260"/>
<stop offset="1" stop-color="#F9A6FF"/>
</linearGradient>
</defs>
</svg>
